<svg xmlns="http://www.w3.org/2000/svg" viewBox="0 0 414.79 414.79"><defs><style>.cls-1{fill:#ffdb00;}.cls-2{fill:#1a1a1a;}</style></defs><title>Asset 3</title><g id="Layer_2" data-name="Layer 2"><g id="Layer_1-2" data-name="Layer 1"><path class="cls-1" d="M230.7,9.48h0a33.43,33.43,0,0,1,55.47,14.86h0a33.43,33.43,0,0,0,40.37,23.31h0a33.43,33.43,0,0,1,40.6,40.61h0a33.44,33.44,0,0,0,23.31,40.36h0a33.43,33.43,0,0,1,14.86,55.47h0a33.44,33.44,0,0,0,0,46.61h0a33.43,33.43,0,0,1-14.86,55.47h0a33.45,33.45,0,0,0-23.31,40.37h0a33.42,33.42,0,0,1-40.6,40.6h0a33.45,33.45,0,0,0-40.37,23.31h0a33.43,33.43,0,0,1-55.47,14.86h0a33.44,33.44,0,0,0-46.61,0h0a33.43,33.43,0,0,1-55.47-14.86h0a33.44,33.44,0,0,0-40.36-23.31h0a33.43,33.43,0,0,1-40.61-40.6h0a33.43,33.43,0,0,0-23.31-40.37h0A33.43,33.43,0,0,1,9.48,230.7h0a33.42,33.42,0,0,0,0-46.61h0a33.43,33.43,0,0,1,14.86-55.47h0A33.42,33.42,0,0,0,47.65,88.26h0A33.43,33.43,0,0,1,88.26,47.65h0a33.42,33.42,0,0,0,40.36-23.31h0A33.43,33.43,0,0,1,184.09,9.48h0A33.42,33.42,0,0,0,230.7,9.48Z"/><ellipse class="cls-2" cx="168.97" cy="159.4" rx="18.57" ry="33.92"/><ellipse class="cls-2" cx="245.82" cy="159.4" rx="18.57" ry="33.92"/><path class="cls-2" d="M207.4,315.48a125.14,125.14,0,0,1-125-125,8.66,8.66,0,1,1,17.31,0,107.69,107.69,0,0,0,215.37,0,8.66,8.66,0,1,1,17.32,0A125.15,125.15,0,0,1,207.4,315.48Z"/></g></g></svg>