<svg xmlns="http://www.w3.org/2000/svg" viewBox="0 0 414.79 414.79"><defs><style>.cls-1{fill:#2563eb;}</style></defs><title>Asset 6</title><g id="Layer_2" data-name="Layer 2"><g id="Layer_1-2" data-name="Layer 1"><path class="cls-1" d="M405.31,230.7a33.44,33.44,0,0,1,0-46.61h0a33.43,33.43,0,0,0-14.86-55.47h0a33.44,33.44,0,0,1-23.31-40.36h0a33.43,33.43,0,0,0-40.6-40.61h0a33.43,33.43,0,0,1-40.37-23.31h0A33.43,33.43,0,0,0,230.7,9.48h0a33.42,33.42,0,0,1-46.61,0h0a33.43,33.43,0,0,0-55.47,14.86h0A33.42,33.42,0,0,1,88.26,47.65h0A33.43,33.43,0,0,0,47.65,88.26h0a33.42,33.42,0,0,1-23.31,40.36h0A33.43,33.43,0,0,0,9.48,184.09h0a33.42,33.42,0,0,1,0,46.61h0a33.43,33.43,0,0,0,14.86,55.47h0a33.43,33.43,0,0,1,23.31,40.37h0a33.43,33.43,0,0,0,40.61,40.6h0a33.44,33.44,0,0,1,40.36,23.31h0a33.43,33.43,0,0,0,55.47,14.86h0a33.44,33.44,0,0,1,46.61,0h0a33.43,33.43,0,0,0,55.47-14.86h0a33.45,33.45,0,0,1,40.37-23.31h0a33.42,33.42,0,0,0,40.6-40.6h0a33.45,33.45,0,0,1,23.31-40.37h0a33.43,33.43,0,0,0,14.86-55.47ZM245.82,125.48c10.26,0,18.58,15.19,18.58,33.92s-8.32,33.91-18.58,33.91-18.57-15.18-18.57-33.91S235.57,125.48,245.82,125.48Zm-76.85,0c10.26,0,18.57,15.19,18.57,33.92s-8.31,33.91-18.57,33.91S150.4,178.13,150.4,159.4,158.71,125.48,169,125.48Zm-50.84,41.9L127.4,173l9.27-5.59-2.46,10.55L142.4,185l-10.79.92-4.21,10-4.22-10L112.4,185l8.18-7.09ZM207.4,318.45a125.2,125.2,0,0,1-125.06-125h18a107.06,107.06,0,0,0,214.11,0h18A125.2,125.2,0,0,1,207.4,318.45Z"/></g></g></svg>